<svg width="24" height="24" viewBox="0 0 24 24" fill="none" xmlns="http://www.w3.org/2000/svg">
<path d="M23.9746 8.42739C23.9047 6.85248 23.5755 5.29987 23.0002 3.83211C22.899 3.57332 22.9278 3.33733 22.9597 3.08209C23.0502 2.3954 22.876 1.70001 22.4725 1.13703C22.069 0.574054 21.4665 0.185655 20.7872 0.0506424C20.744 0.0376422 20.7021 0.0206897 20.6621 0L19.867 0C19.589 0.0936884 19.2947 0.151927 19.0375 0.291194C18.7487 0.444026 18.4834 0.637417 18.2495 0.865478C12.4489 6.65626 6.65272 12.4511 0.86092 18.25C0.43046 18.6804 0.135722 19.1853 0.0389946 19.7905C0.0299498 19.8197 0.0168218 19.8475 0 19.8731L0 20.6697C0.128125 21.1179 0.264353 21.5605 0.567701 21.9281C1.27973 22.7907 2.18674 23.1301 3.28871 22.9461C3.41546 22.9197 3.5468 22.9258 3.67056 22.9638C5.09715 23.5067 6.56578 23.8586 8.09164 23.9554C8.14464 23.9636 8.19659 23.9775 8.2466 23.9969H10.1204C10.4956 23.9503 10.8765 23.9067 11.2537 23.8581C13.222 23.6131 15.1197 22.97 16.8315 21.9681C20.5375 19.7966 22.7328 16.5347 23.6611 12.379C23.9438 11.082 24.0492 9.75272 23.9746 8.42739ZM8.81937 20.5973C8.8193 20.6923 8.80052 20.7864 8.76409 20.8742C8.72766 20.9619 8.67429 21.0417 8.60705 21.1088C8.5398 21.176 8.45999 21.2292 8.37216 21.2655C8.28433 21.3018 8.19022 21.3205 8.09518 21.3204H8.07746C7.98242 21.3205 7.8883 21.3018 7.80048 21.2655C7.71265 21.2292 7.63284 21.176 7.56559 21.1088C7.49834 21.0417 7.44498 20.9619 7.40855 20.8742C7.37212 20.7864 7.35334 20.6923 7.35327 20.5973V19.2112C7.35334 19.1161 7.37212 19.022 7.40855 18.9343C7.44498 18.8465 7.49834 18.7668 7.56559 18.6996C7.63284 18.6325 7.71265 18.5792 7.80048 18.5429C7.8883 18.5066 7.98242 18.4879 8.07746 18.488H8.09518C8.28707 18.488 8.47112 18.5642 8.6069 18.6998C8.74268 18.8353 8.8191 19.0193 8.81937 19.2112V20.5973ZM13.6547 20.2428C13.6307 20.3844 13.5652 20.5156 13.4664 20.62C13.3677 20.7243 13.2402 20.7969 13.1002 20.8287C12.9116 20.8739 12.7127 20.8427 12.5471 20.7418C12.3814 20.641 12.2624 20.4787 12.2159 20.2904L11.8934 18.9402C11.872 18.8473 11.8692 18.7511 11.8851 18.6571C11.901 18.5631 11.9353 18.4732 11.986 18.3924C12.0367 18.3117 12.1028 18.2418 12.1806 18.1867C12.2584 18.1315 12.3463 18.0923 12.4393 18.0712C12.6275 18.0275 12.8253 18.0598 12.99 18.1609C13.1546 18.262 13.2728 18.4239 13.3189 18.6116L13.6446 19.9607C13.6664 20.0535 13.6698 20.1497 13.6547 20.2438V20.2428ZM18.1082 17.7106C18.0712 17.7984 18.0173 17.8781 17.9497 17.9451C17.811 18.0802 17.625 18.1558 17.4314 18.1558C17.2377 18.1558 17.0517 18.0802 16.913 17.9451L15.9194 16.9652C15.8517 16.8984 15.798 16.8189 15.7614 16.7312C15.7248 16.6434 15.706 16.5493 15.7062 16.4542C15.7062 16.3591 15.7249 16.265 15.7614 16.1772C15.7983 16.0896 15.852 16.0102 15.9194 15.9432C16.058 15.8079 16.244 15.7321 16.4377 15.7321C16.6315 15.7321 16.8175 15.8079 16.9561 15.9432L17.9497 16.9226C18.0519 17.0233 18.1216 17.1522 18.1498 17.2929C18.1781 17.4335 18.1636 17.5794 18.1082 17.7117V17.7106ZM20.9087 13.0951C20.8652 13.2833 20.7494 13.4469 20.5863 13.5505C20.4233 13.6542 20.2261 13.6896 20.0372 13.6491L18.6637 13.3559C18.5701 13.3366 18.4812 13.2989 18.4022 13.2451C18.3232 13.1913 18.2556 13.1225 18.2033 13.0425C18.1509 12.9625 18.1149 12.8729 18.0973 12.779C18.0797 12.685 18.0808 12.5885 18.1006 12.495C18.1438 12.3067 18.2594 12.143 18.4225 12.0394C18.5855 11.9358 18.7828 11.9006 18.9716 11.9415L20.3451 12.2347C20.4388 12.2538 20.5278 12.2914 20.6069 12.3451C20.6861 12.3988 20.7538 12.4677 20.8062 12.5477C20.8586 12.6278 20.8946 12.7174 20.9122 12.8114C20.9298 12.9055 20.9286 13.002 20.9087 13.0956V13.0951ZM20.6469 8.86748H19.2238C19.1273 8.87003 19.0312 8.85322 18.9413 8.81804C18.8513 8.78286 18.7693 8.73002 18.7002 8.66264C18.631 8.59526 18.576 8.5147 18.5384 8.42572C18.5009 8.33674 18.4815 8.24114 18.4815 8.14456C18.4815 8.04798 18.5009 7.95238 18.5384 7.8634C18.576 7.77442 18.631 7.69386 18.7002 7.62647C18.7693 7.55909 18.8513 7.50625 18.9413 7.47107C19.0312 7.43589 19.1273 7.41908 19.2238 7.42164H20.6469C20.7434 7.41908 20.8395 7.43589 20.9295 7.47107C21.0194 7.50625 21.1014 7.55909 21.1706 7.62647C21.2398 7.69386 21.2948 7.77442 21.3323 7.8634C21.3699 7.95238 21.3892 8.04798 21.3892 8.14456C21.3892 8.24114 21.3699 8.33674 21.3323 8.42572C21.2948 8.5147 21.2398 8.59526 21.1706 8.66264C21.1014 8.73002 21.0194 8.78286 20.9295 8.81804C20.8395 8.85322 20.7434 8.87003 20.6469 8.86748Z" fill="#353535"/>
</svg>
