<svg width="24" height="24" viewBox="0 0 24 24" fill="none" xmlns="http://www.w3.org/2000/svg">
<path d="M8.10248 0.000924719C7.81715 -0.00986256 7.53627 0.073978 7.30354 0.239395C7.07082 0.404813 6.89931 0.642526 6.81572 0.915532L0.0605642 22.3067C-0.011269 22.5338 -0.0193683 22.7763 0.0371494 23.0077C0.093667 23.2391 0.212632 23.4505 0.381075 23.6189C0.549517 23.7874 0.760971 23.9063 0.992383 23.9629C1.2238 24.0194 1.46628 24.0113 1.69341 23.9394L23.0856 17.1846C23.3586 17.1016 23.5964 16.9304 23.7617 16.6978C23.927 16.4652 24.0104 16.1843 23.999 15.8992C23.5072 7.3451 16.6557 0.494006 8.10248 0.000924719ZM8.41474 18.1877C8.07293 18.1876 7.73449 18.1202 7.41874 17.9893C7.10299 17.8584 6.81611 17.6667 6.57447 17.4249C6.33284 17.1832 6.14119 16.8962 6.01047 16.5804C5.87975 16.2646 5.81251 15.9262 5.8126 15.5844C5.81268 15.2426 5.88009 14.9042 6.01097 14.5884C6.14185 14.2727 6.33364 13.9858 6.5754 13.7442C6.81715 13.5026 7.10413 13.3109 7.41994 13.1802C7.73576 13.0495 8.07423 12.9823 8.41604 12.9824C9.10634 12.9825 9.7683 13.2569 10.2563 13.7451C10.7443 14.2333 11.0184 14.8954 11.0182 15.5857C11.018 16.2759 10.7436 16.9379 10.2554 17.4258C9.76714 17.9138 9.10504 18.1879 8.41474 18.1877ZM16.2212 15.5857C15.8794 15.5856 15.5409 15.5182 15.2252 15.3873C14.9094 15.2564 14.6225 15.0647 14.3809 14.8229C14.1393 14.5812 13.9476 14.2942 13.8169 13.9784C13.6862 13.6626 13.6189 13.3242 13.619 12.9824C13.6191 12.6406 13.6865 12.3022 13.8174 11.9864C13.9483 11.6707 14.1401 11.3838 14.3818 11.1422C14.6236 10.9006 14.9105 10.7089 15.2264 10.5782C15.5422 10.4475 15.8807 10.3803 16.2225 10.3804C16.9128 10.3805 17.5747 10.6549 18.0627 11.1431C18.5507 11.6313 18.8248 12.2934 18.8246 12.9837C18.8244 13.6739 18.55 14.3359 18.0618 14.8238C17.5736 15.3118 16.9115 15.5858 16.2212 15.5857Z" fill="#FF4E4E"/>
</svg>
