<svg width="20" height="14" viewBox="0 0 20 14" fill="none" xmlns="http://www.w3.org/2000/svg">
<path d="M17.2727 3.5H14.5455V0H1.81818C0.818182 0 0 0.7875 0 1.75V11.375H1.81818C1.81818 12.8275 3.03636 14 4.54545 14C6.05455 14 7.27273 12.8275 7.27273 11.375H12.7273C12.7273 12.8275 13.9455 14 15.4545 14C16.9636 14 18.1818 12.8275 18.1818 11.375H20V7L17.2727 3.5ZM4.54545 12.6875C3.79091 12.6875 3.18182 12.1012 3.18182 11.375C3.18182 10.6488 3.79091 10.0625 4.54545 10.0625C5.3 10.0625 5.90909 10.6488 5.90909 11.375C5.90909 12.1012 5.3 12.6875 4.54545 12.6875ZM16.8182 4.8125L18.6 7H14.5455V4.8125H16.8182ZM15.4545 12.6875C14.7 12.6875 14.0909 12.1012 14.0909 11.375C14.0909 10.6488 14.7 10.0625 15.4545 10.0625C16.2091 10.0625 16.8182 10.6488 16.8182 11.375C16.8182 12.1012 16.2091 12.6875 15.4545 12.6875Z" fill="#5C5C5C"/>
</svg>
